<mxfile host="app.diagrams.net" modified="2023-08-31T10:15:52.270Z" agent="Mozilla/5.0 (Macintosh; Intel Mac OS X 10_15_7) AppleWebKit/537.36 (KHTML, like Gecko) Chrome/115.0.0.0 Safari/537.36" etag="k2ROViMPPtcgA0calO5b" version="21.6.8" type="github">
  <diagram name="pod结构" id="PC91RwxRiLuTrLK7NeVE">
    <mxGraphModel dx="494" dy="446" grid="1" gridSize="10" guides="1" tooltips="1" connect="1" arrows="1" fold="1" page="1" pageScale="1" pageWidth="827" pageHeight="1169" math="0" shadow="0">
      <root>
        <mxCell id="0" />
        <mxCell id="1" parent="0" />
        <mxCell id="H7jGTG2I9jLkjftGQIm0-5" value="" style="rounded=0;whiteSpace=wrap;html=1;fillColor=#b1ddf0;strokeColor=#10739e;" vertex="1" parent="1">
          <mxGeometry x="170" y="60" width="360" height="350" as="geometry" />
        </mxCell>
        <mxCell id="H7jGTG2I9jLkjftGQIm0-1" value="container 1&lt;br&gt;image1" style="rounded=0;whiteSpace=wrap;html=1;fillColor=#e1d5e7;strokeColor=#9673a6;" vertex="1" parent="1">
          <mxGeometry x="220" y="120" width="260" height="60" as="geometry" />
        </mxCell>
        <mxCell id="H7jGTG2I9jLkjftGQIm0-2" value="container 2&lt;br&gt;image 2" style="rounded=0;whiteSpace=wrap;html=1;fillColor=#e1d5e7;strokeColor=#9673a6;" vertex="1" parent="1">
          <mxGeometry x="220" y="210" width="260" height="60" as="geometry" />
        </mxCell>
        <mxCell id="H7jGTG2I9jLkjftGQIm0-3" value="Pause&lt;br&gt;gcr.io/google_containers/pause-arm64" style="rounded=0;whiteSpace=wrap;html=1;fillColor=#bac8d3;strokeColor=#23445d;" vertex="1" parent="1">
          <mxGeometry x="220" y="330" width="260" height="60" as="geometry" />
        </mxCell>
        <mxCell id="H7jGTG2I9jLkjftGQIm0-4" value="........" style="text;html=1;strokeColor=none;fillColor=none;align=center;verticalAlign=middle;whiteSpace=wrap;rounded=0;" vertex="1" parent="1">
          <mxGeometry x="320" y="290" width="60" height="30" as="geometry" />
        </mxCell>
        <mxCell id="H7jGTG2I9jLkjftGQIm0-6" value="&lt;font style=&quot;font-size: 16px;&quot;&gt;&lt;b&gt;Pod&lt;/b&gt;&lt;/font&gt;" style="text;html=1;strokeColor=none;fillColor=none;align=center;verticalAlign=middle;whiteSpace=wrap;rounded=0;" vertex="1" parent="1">
          <mxGeometry x="320" y="60" width="60" height="30" as="geometry" />
        </mxCell>
        <mxCell id="H7jGTG2I9jLkjftGQIm0-7" value="" style="shape=curlyBracket;whiteSpace=wrap;html=1;rounded=1;labelPosition=left;verticalLabelPosition=middle;align=right;verticalAlign=middle;" vertex="1" parent="1">
          <mxGeometry x="120" y="130" width="20" height="120" as="geometry" />
        </mxCell>
        <mxCell id="H7jGTG2I9jLkjftGQIm0-8" value="" style="shape=curlyBracket;whiteSpace=wrap;html=1;rounded=1;labelPosition=left;verticalLabelPosition=middle;align=right;verticalAlign=middle;" vertex="1" parent="1">
          <mxGeometry x="120" y="330" width="20" height="60" as="geometry" />
        </mxCell>
        <mxCell id="H7jGTG2I9jLkjftGQIm0-9" value="用户容器" style="text;html=1;strokeColor=none;fillColor=none;align=center;verticalAlign=middle;whiteSpace=wrap;rounded=0;" vertex="1" parent="1">
          <mxGeometry x="50" y="175" width="60" height="30" as="geometry" />
        </mxCell>
        <mxCell id="H7jGTG2I9jLkjftGQIm0-10" value="根容器" style="text;html=1;strokeColor=none;fillColor=none;align=center;verticalAlign=middle;whiteSpace=wrap;rounded=0;" vertex="1" parent="1">
          <mxGeometry x="50" y="345" width="60" height="30" as="geometry" />
        </mxCell>
      </root>
    </mxGraphModel>
  </diagram>
</mxfile>
